<?xml version="1.0" standalone="no"?>
<!DOCTYPE svg PUBLIC "-//W3C//DTD SVG 20010904//EN"
 "http://www.w3.org/TR/2001/REC-SVG-20010904/DTD/svg10.dtd">
<svg version="1.0" xmlns="http://www.w3.org/2000/svg"
 width="590.000000pt" height="522.000000pt" viewBox="0 0 590.000000 522.000000"
 preserveAspectRatio="xMidYMid meet">

<g transform="translate(0.000000,522.000000) scale(0.100000,-0.100000)"
fill="#000000" stroke="none">
<path d="M2835 5199 c-218 -18 -452 -67 -675 -144 -141 -48 -420 -187 -550
-274 -309 -206 -593 -496 -782 -799 -34 -53 -62 -98 -63 -100 -2 -2 -24 12
-49 31 -25 20 -62 41 -82 47 -49 16 -124 17 -162 1 -42 -18 -72 -83 -72 -159
0 -74 28 -132 113 -231 55 -64 63 -78 56 -100 -42 -145 -94 -387 -115 -536
-19 -135 -23 -501 -7 -619 l10 -69 -46 -28 c-25 -16 -122 -73 -216 -127 -132
-77 -171 -104 -173 -122 -2 -12 1 -27 8 -34 7 -7 92 -13 251 -16 l241 -5 43
-130 c68 -208 156 -394 266 -566 l49 -76 0 -91 c0 -51 -3 -92 -7 -92 -26 0
-197 -32 -239 -45 -53 -15 -91 -46 -79 -64 17 -29 191 -80 273 -81 27 0 32 -4
32 -23 0 -50 84 -100 229 -137 78 -20 261 -50 306 -50 15 0 60 -26 112 -64
869 -634 2060 -661 2959 -68 l119 79 278 12 c505 22 884 80 959 148 70 63 -53
121 -362 168 -85 13 -153 24 -150 25 3 1 45 10 94 20 94 20 118 32 99 51 -18
18 -117 37 -248 50 -185 17 -175 4 -99 111 163 230 292 491 368 741 l27 87
158 0 c147 0 159 1 177 21 14 15 16 24 8 37 -6 9 -68 51 -138 93 -70 42 -132
81 -138 87 -7 7 -4 67 7 183 75 737 -171 1482 -664 2013 -474 511 -1057 793
-1750 846 -152 11 -217 11 -376 -1z m560 -214 c1134 -182 1975 -1101 2044
-2235 9 -148 -3 -448 -18 -463 -5 -5 -98 44 -207 107 l-198 116 -68 0 c-37 0
-68 2 -68 5 0 2 -29 118 -65 256 -36 139 -63 254 -61 256 2 3 47 0 100 -6 121
-14 300 -14 348 -1 39 11 68 42 68 72 0 50 -106 125 -258 183 -59 23 -74 33
-79 54 -24 103 -125 198 -254 240 -82 26 -149 30 -272 16 -104 -12 -133 -20
-192 -50 -69 -35 -71 -35 -161 -29 -62 5 -93 3 -98 -4 -4 -7 -25 -9 -55 -5
-47 5 -49 4 -65 -27 -9 -18 -16 -44 -16 -57 0 -31 -14 -29 -39 6 -29 41 -27
49 23 71 60 25 117 78 146 137 20 38 25 65 27 133 l2 85 -97 -7 c-53 -4 -121
-10 -150 -14 -52 -7 -53 -7 -51 -38 1 -17 1 -41 0 -52 -2 -31 -33 -66 -52 -59
-28 10 -51 63 -47 108 l3 42 -40 3 c-22 2 -81 1 -132 -3 -73 -5 -91 -10 -86
-21 10 -27 -16 -14 -71 37 -46 42 -56 47 -56 31 0 -12 17 -34 40 -52 32 -25
40 -38 40 -65 0 -89 71 -206 154 -250 29 -16 34 -23 29 -43 -3 -13 -15 -34
-27 -46 -11 -13 -33 -39 -48 -58 -37 -49 -134 -112 -161 -105 -80 20 -178 56
-154 56 18 1 40 12 58 30 75 75 -5 189 -103 148 -53 -22 -69 -5 -28 29 65 55
86 143 51 219 -36 78 -101 111 -200 101 l-64 -7 40 44 c23 25 49 60 58 78 l18
33 73 -77 c41 -42 74 -70 74 -62 0 20 29 14 70 -15 l35 -24 -24 27 c-14 15
-20 27 -14 27 5 0 18 -9 28 -20 24 -27 38 -25 30 3 -9 28 -131 154 -157 160
-14 4 -18 2 -14 -10 10 -26 -4 -33 -32 -15 -25 16 -26 16 -19 -1 7 -20 3 -21
-24 -7 -17 10 -19 18 -13 74 13 128 -54 247 -167 295 -50 22 -51 24 -46 57 7
43 -7 44 -53 4 -44 -37 -70 -39 -70 -4 l0 25 -31 -21 c-16 -12 -31 -21 -32
-19 -1 2 -9 17 -17 33 -8 17 -30 39 -49 50 -32 18 -42 19 -160 9 -76 -7 -145
-8 -171 -2 -25 4 -64 8 -87 9 -25 0 -43 5 -43 11 0 7 -8 6 -22 -3 -13 -8 -40
-18 -60 -22 -32 -6 -38 -4 -38 10 0 16 -2 15 -22 -3 -13 -11 -45 -26 -72 -33
-100 -27 -197 -113 -227 -200 -7 -19 -32 -54 -56 -78 -67 -65 -98 -139 -98
-234 1 -75 0 -78 -27 -89 -41 -17 -115 -101 -127 -145 -14 -51 -14 -62 5 -117
22 -64 85 -120 160 -142 65 -19 81 -26 138 -58 35 -20 41 -30 61 -96 l22 -75
34 47 c19 25 37 46 41 47 4 0 13 -20 19 -45 6 -25 15 -47 18 -50 8 -4 77 84
88 110 8 22 78 19 111 -5 22 -16 47 -20 139 -22 130 -3 144 3 204 92 46 67
119 109 194 110 49 0 126 27 139 49 4 6 24 -2 52 -22 42 -29 53 -32 135 -35
49 -2 89 -6 89 -8 0 -2 -8 -19 -17 -39 -15 -32 -15 -38 -1 -68 l16 -33 -157
-1 c-244 -2 -452 -38 -614 -108 -46 -20 -155 -76 -243 -125 -169 -96 -200
-105 -267 -77 -18 8 -49 32 -69 55 -34 37 -43 59 -62 145 -4 17 -13 27 -25 27
-29 0 -39 -20 -48 -90 -8 -62 -9 -64 -23 -40 -7 14 -18 45 -25 70 -7 26 -18
46 -27 48 -22 4 -42 -85 -35 -159 3 -33 4 -59 2 -59 -11 0 -105 131 -105 146
0 11 -9 33 -20 49 -24 36 -25 45 -6 45 20 0 46 28 46 49 0 22 -182 345 -213
380 -12 13 -36 30 -54 37 l-32 14 36 63 c234 402 586 736 994 945 252 129 519
209 819 248 138 17 498 11 635 -11z m-970 -559 c34 -15 35 -16 35 -72 0 -46 2
-54 14 -45 7 6 35 14 62 17 27 3 45 2 39 -3 -5 -4 -11 -48 -13 -98 -1 -49 -6
-93 -10 -97 -9 -9 -45 108 -38 120 2 4 -3 18 -13 30 l-17 23 -31 -33 c-25 -27
-35 -52 -53 -131 -13 -54 -25 -96 -27 -93 -4 4 -11 121 -13 201 0 21 -3 26
-11 18 -6 -6 -17 -10 -23 -9 -6 2 -8 1 -4 -1 4 -3 -11 -29 -34 -59 -39 -52
-41 -59 -40 -117 2 -62 2 -62 -16 -37 -18 27 -55 65 -88 91 -17 13 -26 14 -57
3 l-36 -13 -10 52 c-51 258 -51 257 -6 257 21 0 35 -5 35 -12 0 -10 3 -9 9 1
9 14 32 12 87 -9 26 -10 26 -11 8 -25 -10 -8 -25 -15 -32 -15 -31 0 -106 -100
-88 -117 3 -3 28 9 56 26 28 17 55 29 61 26 5 -4 9 -2 9 3 0 5 7 26 15 46 14
33 18 35 36 25 18 -9 26 -6 53 19 48 46 82 52 141 28z m-555 -46 c-6 -11 -14
-77 -18 -146 l-7 -126 -27 22 c-16 12 -28 28 -28 35 0 18 32 85 40 85 12 0 4
37 -12 61 -20 29 -29 21 -54 -46 l-18 -49 -8 34 c-4 24 -2 42 7 57 17 25 70
65 78 57 3 -3 15 4 26 15 27 27 35 27 21 1z m70 -85 c0 -19 -4 -35 -10 -35 -5
0 -10 16 -10 35 0 19 5 35 10 35 6 0 10 -16 10 -35z m808 -4 c108 -56 155
-202 99 -311 -12 -25 -28 -44 -36 -42 -8 2 -11 -3 -8 -12 6 -15 -21 -46 -40
-46 -6 0 -13 -7 -16 -15 -5 -12 -76 -55 -92 -55 -4 0 -4 8 -1 18 3 9 8 79 10
155 7 195 22 327 37 327 5 0 26 -9 47 -19z m-803 -51 c-3 -5 -10 -10 -16 -10
-5 0 -9 5 -9 10 0 6 7 10 16 10 8 0 12 -4 9 -10z m-257 -141 c-7 -4 -6 -8 1
-10 6 -2 16 -29 22 -60 l11 -57 -41 -38 c-48 -42 -96 -118 -86 -134 4 -6 1
-17 -5 -25 -8 -9 -9 -15 -2 -15 6 0 13 -15 17 -32 3 -18 15 -75 27 -127 17
-78 18 -95 7 -103 -11 -8 -10 -9 4 -4 9 3 17 2 17 -3 0 -5 3 -23 7 -42 l6 -33
-34 21 c-19 11 -52 24 -74 28 -101 18 -168 83 -171 169 -1 29 5 65 13 84 18
38 96 102 124 102 22 0 22 0 19 102 -2 95 20 151 87 216 l47 47 7 -40 c4 -23
3 -43 -3 -46z m253 -86 c-17 -26 -31 -50 -31 -54 0 -4 -5 -20 -11 -36 l-11
-28 -15 37 c-16 40 -57 63 -98 56 -25 -5 -34 5 -15 17 6 4 7 24 4 48 l-7 42
35 -32 c39 -38 45 -40 51 -15 3 9 5 -2 6 -25 1 -55 16 -62 54 -25 27 27 31 38
28 75 -2 32 3 49 16 62 17 18 18 17 21 -29 3 -39 -2 -55 -27 -93z m544 -79 c8
-44 54 -207 61 -213 2 -2 13 4 25 14 52 48 96 -67 44 -119 -8 -8 -15 -19 -15
-24 0 -20 -74 -53 -134 -59 -33 -3 -77 -14 -97 -24 -20 -10 -39 -16 -41 -14
-3 3 -1 33 4 68 7 55 13 66 48 98 39 35 40 38 55 145 19 137 25 164 35 164 4
0 11 -16 15 -36z m-371 -50 c27 -27 38 -54 51 -131 33 -190 -12 -308 -79 -205
-56 85 -80 269 -43 325 20 30 48 35 71 11z m-1644 -46 c0 -17 90 -199 112
-225 7 -9 25 -24 41 -33 29 -18 389 -412 382 -419 -2 -2 -17 0 -32 4 -18 4
-85 64 -182 163 -330 334 -390 425 -350 529 8 22 12 24 19 13 6 -8 10 -22 10
-32z m1307 -40 c22 -29 -8 -138 -37 -138 -5 0 -14 26 -20 57 -12 54 -11 58 10
75 26 21 34 22 47 6z m1166 -15 c4 -2 4 -9 1 -15 -5 -7 -2 -9 8 -5 10 3 25 -4
38 -18 16 -17 18 -24 8 -28 -9 -4 -7 -6 5 -6 14 -1 17 -10 17 -51 0 -41 -3
-50 -17 -50 -13 0 -14 -3 -6 -8 19 -12 -14 -55 -37 -49 -13 3 -17 0 -13 -9 7
-19 -58 -29 -100 -15 -61 21 -98 76 -92 139 6 68 27 95 92 117 34 12 72 11 96
-2z m-2228 -48 c14 -13 25 -36 25 -50 0 -33 -42 -75 -75 -75 -28 0 -75 40 -75
64 0 73 76 111 125 61z m1199 -163 c9 -35 14 -67 11 -72 -3 -4 -1 -10 4 -12 8
-3 61 -101 61 -113 0 -3 -14 -5 -31 -5 -19 0 -28 4 -23 11 4 7 0 9 -14 5 -12
-4 -34 0 -51 8 -17 9 -39 16 -50 16 -15 0 -23 11 -32 41 -8 26 -9 45 -3 53 5
7 29 42 53 79 25 37 48 64 51 60 4 -5 14 -36 24 -71z m2704 -47 c75 -18 129
-44 176 -86 37 -32 82 -97 73 -105 -3 -3 -70 13 -148 35 -79 23 -196 52 -259
66 -63 14 -122 28 -130 31 -22 8 35 40 100 58 71 19 111 19 188 1z m-1520 -87
c20 -20 15 -66 -9 -78 -16 -9 -26 -8 -45 5 -41 27 -27 85 21 85 12 0 26 -5 33
-12z m817 -18 c3 -5 2 -10 -4 -10 -5 0 -13 5 -16 10 -3 6 -2 10 4 10 5 0 13
-4 16 -10z m-325 -23 c0 -2 -10 -12 -22 -23 l-23 -19 19 23 c18 21 26 27 26
19z m15 -27 c-16 -16 -31 -28 -33 -25 -7 7 39 55 52 55 5 0 -3 -13 -19 -30z
m35 -5 c-18 -19 -36 -32 -39 -30 -6 7 50 65 63 65 5 0 -5 -16 -24 -35z m35 -5
c-21 -22 -44 -40 -49 -40 -6 0 8 18 29 40 21 22 44 40 49 40 6 0 -8 -18 -29
-40z m20 -20 c-21 -22 -41 -37 -44 -35 -2 3 13 23 34 45 21 22 41 37 44 35 2
-3 -13 -23 -34 -45z m175 -52 c52 -25 140 -61 195 -78 55 -18 103 -36 107 -39
5 -4 -29 -61 -73 -126 -45 -66 -140 -207 -212 -314 l-131 -194 -12 84 c-22
151 -76 271 -175 389 l-59 69 58 39 c70 48 143 125 172 181 11 23 24 41 28 39
4 -2 50 -25 102 -50z m-840 26 c0 -2 -7 -4 -15 -4 -8 0 -15 4 -15 10 0 5 7 7
15 4 8 -4 15 -8 15 -10z m485 -34 c-21 -22 -41 -37 -44 -35 -6 7 60 75 73 75
6 0 -7 -18 -29 -40z m179 25 c-4 -8 -11 -15 -16 -15 -6 0 -5 6 2 15 7 8 14 15
16 15 2 0 1 -7 -2 -15z m-159 -45 c-21 -22 -41 -37 -44 -35 -6 7 60 75 73 75
6 0 -7 -18 -29 -40z m25 -15 c-24 -25 -49 -45 -54 -45 -6 0 10 20 34 45 24 25
49 45 54 45 6 0 -10 -20 -34 -45z m-724 25 c40 0 44 -2 44 -25 0 -28 -8 -29
-97 -19 -48 6 -53 9 -53 32 0 22 3 24 31 18 17 -3 51 -6 75 -6z m749 -40 c-27
-27 -54 -50 -59 -50 -6 0 12 23 39 50 27 28 54 50 59 50 6 0 -12 -22 -39 -50z
m-895 20 c0 -18 -7 -20 -70 -20 -54 0 -70 3 -70 14 0 20 16 24 83 25 51 1 57
-1 57 -19z m-170 -5 c0 -18 -4 -20 -87 -32 -88 -13 -84 9 5 30 87 20 82 19 82
2z m494 4 c40 -10 42 -12 38 -41 -4 -28 -7 -29 -35 -24 -90 18 -107 26 -107
51 0 21 5 25 31 25 16 0 49 -5 73 -11z m591 -39 c-27 -27 -54 -50 -59 -50 -6
0 12 23 39 50 27 28 54 50 59 50 6 0 -12 -22 -39 -50z m965 21 c71 -22 114
-47 105 -62 -4 -5 -14 -9 -25 -9 -16 0 -30 -18 -30 -40 0 -4 10 -10 23 -14 22
-5 30 -30 100 -298 41 -161 74 -294 73 -295 -2 -2 -204 -2 -450 -1 l-446 3
214 318 c244 361 235 350 252 343 21 -8 29 35 9 50 -54 40 53 43 175 5z
m-1165 -21 c-16 -16 -31 -28 -33 -25 -7 7 39 55 52 55 5 0 -3 -13 -19 -30z
m-237 -2 c34 -12 62 -26 62 -32 -1 -6 -11 -23 -23 -37 l-22 -26 -52 24 c-49
22 -53 27 -53 59 0 41 5 41 88 12z m202 8 c0 -2 -8 -10 -17 -17 -16 -13 -17
-12 -4 4 13 16 21 21 21 13z m50 -31 c-13 -14 -26 -23 -28 -20 -3 3 5 16 18
30 13 14 26 23 28 20 3 -3 -5 -16 -18 -30z m-1080 20 c0 -7 -36 -20 -75 -28
-26 -5 -24 -4 10 13 40 19 65 24 65 15z m1105 -35 c-10 -11 -23 -20 -28 -20
-6 0 0 11 13 25 27 29 42 25 15 -5z m-77 -62 c23 -16 40 -33 37 -38 -3 -5 -25
-22 -49 -38 l-43 -29 -46 44 c-26 24 -47 47 -47 51 0 4 9 22 20 40 l20 33 33
-17 c17 -9 51 -30 75 -46z m97 42 c-10 -11 -20 -18 -23 -15 -7 6 18 35 31 35
5 0 2 -9 -8 -20z m-2687 -72 c26 -18 58 -13 66 8 5 12 11 11 35 -7 21 -16 38
-20 59 -16 27 6 34 0 93 -76 153 -196 336 -463 325 -474 -3 -3 -17 4 -32 16
-28 22 -88 28 -99 10 -5 -6 -22 -8 -46 -4 -28 5 -47 2 -63 -8 -14 -10 -59 -17
-127 -20 -168 -9 -218 -19 -284 -59 -33 -20 -63 -34 -67 -31 -5 2 -8 79 -8
171 0 198 19 379 56 541 l5 24 32 -30 c18 -17 42 -37 55 -45z m2707 52 c-10
-11 -20 -18 -23 -15 -7 6 18 35 31 35 5 0 2 -9 -8 -20z m-2325 -61 c0 -31 -4
-48 -10 -44 -17 11 -12 95 7 95 2 0 3 -23 3 -51z m27 -61 c-2 -18 -4 -4 -4 32
0 36 2 50 4 33 2 -18 2 -48 0 -65z m-57 66 c0 -8 -5 -12 -10 -9 -6 4 -8 11 -5
16 9 14 15 11 15 -7z m100 -87 c0 -36 -4 -56 -10 -52 -5 3 -10 36 -10 73 0 47
3 63 10 52 5 -8 10 -41 10 -73z m2285 -6 c14 -16 25 -31 25 -34 0 -6 -160 -51
-163 -46 -2 2 -13 21 -24 41 l-21 37 51 39 51 40 28 -23 c16 -14 40 -37 53
-54z m-2255 -27 c0 -41 -4 -63 -10 -59 -5 3 -10 33 -10 66 0 33 4 59 10 59 6
0 10 -29 10 -66z m27 -71 c-2 -21 -4 -6 -4 32 0 39 2 55 4 38 2 -18 2 -50 0
-70z m1338 57 c-16 -17 -33 -30 -39 -30 -5 0 5 16 24 35 18 19 36 32 39 30 2
-3 -8 -19 -24 -35z m210 10 c-10 -11 -23 -20 -28 -20 -6 0 0 11 13 25 27 29
42 25 15 -5z m20 -20 c-16 -16 -31 -28 -34 -25 -2 3 8 19 24 35 16 16 31 28
34 25 2 -3 -8 -19 -24 -35z m39 -1 c-10 -11 -28 -26 -39 -31 -12 -7 -7 3 14
26 36 37 59 42 25 5z m-1564 -60 c0 -39 -4 -69 -10 -69 -6 0 -10 32 -10 76 0
47 4 73 10 69 6 -3 10 -37 10 -76z m1310 46 c-13 -14 -28 -25 -34 -25 -5 0 3
13 19 30 16 16 31 28 33 25 3 -3 -5 -16 -18 -30z m-301 -42 c2 -1 -3 -11 -11
-20 -23 -27 -74 -132 -88 -183 -7 -25 -15 -70 -19 -100 -6 -51 -8 -55 -33 -58
-29 -3 -36 6 -17 25 14 14 -3 47 -40 79 -47 41 -71 46 -179 37 l-101 -9 6 28
c4 20 -1 33 -20 52 -31 31 -56 33 -88 8 -20 -17 -25 -17 -50 -5 -32 16 -58 7
-82 -27 -14 -19 -17 -17 -86 56 -40 42 -71 78 -68 80 2 2 21 -3 43 -13 52 -22
362 -35 382 -15 17 15 16 16 61 -8 42 -21 51 -18 51 17 0 30 39 47 76 33 36
-14 54 -12 54 5 0 18 0 18 36 1 16 -8 41 -18 57 -21 26 -7 27 -6 27 32 0 22 3
42 6 46 4 4 60 -22 83 -40z m316 17 c-10 -11 -23 -20 -28 -20 -6 0 0 11 13 25
27 29 42 25 15 -5z m953 -38 c19 -35 32 -65 30 -67 -2 -3 -54 -7 -114 -11
l-110 -7 -11 49 c-6 27 -11 49 -10 50 28 15 147 53 161 51 12 -1 32 -25 54
-65z m-2248 -28 c0 -48 -4 -73 -10 -69 -5 3 -10 40 -10 81 0 48 4 73 10 69 6
-3 10 -40 10 -81z m1180 72 c0 -3 -4 -8 -10 -11 -5 -3 -10 -1 -10 4 0 6 5 11
10 11 6 0 10 -2 10 -4z m-40 -81 c-35 -35 -66 -62 -69 -59 -3 2 24 34 59 69
35 35 66 62 69 59 3 -2 -24 -34 -59 -69z m170 50 c-13 -14 -26 -23 -28 -20 -7
7 29 45 41 45 6 0 0 -11 -13 -25z m-1280 -76 c0 -51 -4 -78 -10 -74 -5 3 -10
40 -10 81 0 43 4 74 10 74 6 0 10 -34 10 -81z m1135 11 c-33 -33 -64 -60 -69
-60 -6 0 18 29 54 65 35 35 66 62 69 59 3 -2 -22 -31 -54 -64z m160 40 c-10
-11 -20 -18 -23 -15 -3 3 3 14 13 25 10 11 20 18 23 15 3 -3 -3 -14 -13 -25z
m-185 16 c0 -2 -8 -10 -17 -17 -16 -13 -17 -12 -4 4 13 16 21 21 21 13z
m-1070 -124 c0 -53 -4 -81 -10 -77 -6 3 -10 47 -10 98 0 63 3 87 10 77 5 -8
10 -52 10 -98z m1120 53 c-30 -30 -59 -55 -64 -55 -6 0 14 25 44 55 30 30 59
55 64 55 6 0 -14 -25 -44 -55z m160 40 c-7 -8 -17 -15 -22 -15 -6 0 -5 7 2 15
7 8 17 15 22 15 6 0 5 -7 -2 -15z m-140 -60 c-29 -30 -56 -52 -59 -50 -6 7 90
105 103 105 6 0 -14 -25 -44 -55z m347 20 c19 3 41 9 48 11 9 4 17 -7 24 -32
6 -21 9 -39 8 -40 -1 -1 -38 -7 -83 -12 -44 -6 -93 -16 -110 -22 l-29 -11 40
-37 c22 -20 65 -58 95 -84 l55 -48 -194 0 -194 0 7 53 c10 75 40 129 103 187
45 41 61 50 82 46 14 -3 42 -2 61 2 26 6 37 5 44 -6 6 -10 18 -12 43 -7z
m-1457 -91 c0 -61 -4 -93 -10 -89 -6 3 -10 49 -10 101 0 61 4 93 10 89 6 -3
10 -49 10 -101z m1130 51 c-24 -25 -46 -42 -49 -40 -3 3 15 25 39 50 24 25 46
42 49 40 3 -3 -15 -25 -39 -50z m-1100 -92 c0 -74 -3 -103 -10 -93 -13 20 -13
200 0 200 6 0 10 -42 10 -107z m2176 65 c7 -20 14 -51 16 -70 l3 -33 -124 3
c-69 1 -126 4 -127 5 -1 1 -5 27 -8 58 l-7 56 93 10 c135 15 139 14 154 -29z
m-1072 -3 c-9 -14 -21 -25 -27 -25 -6 0 0 11 13 25 13 14 25 25 27 25 2 0 -4
-11 -13 -25z m-1064 -101 c0 -63 -4 -104 -10 -104 -6 0 -10 44 -10 111 0 71 4
108 10 104 6 -3 10 -52 10 -111z m260 66 c0 -27 -4 -50 -10 -50 -5 0 -10 23
-10 50 0 28 5 50 10 50 6 0 10 -22 10 -50z m30 1 c0 -22 -4 -43 -10 -46 -6 -4
-10 12 -10 39 0 25 5 46 10 46 6 0 10 -18 10 -39z m600 14 c-7 -8 -17 -15 -22
-15 -6 0 -5 7 2 15 7 8 17 15 22 15 6 0 5 -7 -2 -15z m-673 -32 c-3 -10 -5 -4
-5 12 0 17 2 24 5 18 2 -7 2 -21 0 -30z m678 -3 c-21 -22 -41 -37 -44 -35 -6
7 60 75 73 75 6 0 -7 -18 -29 -40z m-865 -60 c0 -53 -4 -90 -10 -90 -6 0 -10
37 -10 90 0 53 4 90 10 90 6 0 10 -37 10 -90z m875 30 c-32 -33 -61 -57 -64
-54 -6 6 100 114 113 114 6 0 -16 -27 -49 -60z m20 -20 c-33 -33 -64 -60 -69
-60 -6 0 18 29 54 65 35 35 66 62 69 59 3 -2 -22 -31 -54 -64z m-865 -16 c0
-41 -4 -63 -10 -59 -5 3 -10 33 -10 66 0 33 4 59 10 59 6 0 10 -29 10 -66z
m900 11 c-30 -30 -59 -55 -64 -55 -6 0 14 25 44 55 30 30 59 55 64 55 6 0 -14
-25 -44 -55z m70 40 c0 -11 -83 -95 -93 -95 -6 0 11 23 38 50 49 50 55 55 55
45z m-772 -35 c20 0 21 -2 11 -22 -6 -12 -15 -32 -18 -45 -6 -22 -7 -22 -54
18 -26 22 -47 44 -47 47 0 4 10 12 23 18 16 7 27 6 42 -3 11 -7 30 -13 43 -13z
m222 -40 c0 -32 -4 -62 -10 -65 -6 -4 -10 20 -10 65 0 45 4 69 10 65 6 -3 10
-33 10 -65z m30 5 c0 -37 -4 -65 -10 -65 -6 0 -10 28 -10 65 0 37 4 65 10 65
6 0 10 -28 10 -65z m-423 -37 c-2 -18 -4 -4 -4 32 0 36 2 50 4 33 2 -18 2 -48
0 -65z m453 26 c0 -41 -4 -63 -10 -59 -5 3 -10 33 -10 66 0 33 4 59 10 59 6 0
10 -29 10 -66z m-100 1 c0 -30 -4 -55 -10 -55 -11 0 -14 93 -3 103 12 12 13 8
13 -48z m140 -11 c0 -24 -4 -44 -10 -44 -5 0 -10 23 -10 51 0 31 4 48 10 44 6
-3 10 -26 10 -51z m428 24 c-8 -12 -21 -24 -29 -26 -8 -3 -3 7 10 22 30 32 39
34 19 4z m-878 -28 c0 -22 -4 -40 -10 -40 -5 0 -10 18 -10 40 0 22 5 40 10 40
6 0 10 -18 10 -40z m2030 0 l0 -40 -135 0 c-74 0 -135 4 -135 9 0 5 3 23 6 40
l7 31 128 0 129 0 0 -40z m-1750 -4 c0 -19 -4 -38 -10 -41 -6 -4 -10 10 -10
34 0 23 5 41 10 41 6 0 10 -15 10 -34z m200 -18 c0 -10 -4 -18 -10 -18 -5 0
-10 15 -10 33 0 24 3 28 10 17 5 -8 10 -23 10 -32z m-450 7 c0 -14 -4 -25 -10
-25 -5 0 -10 11 -10 25 0 14 5 25 10 25 6 0 10 -11 10 -25z m-415 -14 c3 -5 1
-12 -5 -16 -5 -3 -10 1 -10 9 0 18 6 21 15 7z m-295 -106 c0 -2 -29 -21 -66
-41 -36 -20 -63 -38 -61 -40 2 -3 53 16 113 41 95 40 117 45 169 43 l60 -3
-67 -39 c-37 -22 -66 -42 -64 -44 2 -2 53 17 112 43 95 40 115 45 168 43 l61
-3 -67 -39 c-37 -22 -66 -42 -64 -44 2 -2 53 18 114 43 95 40 117 46 168 43
l59 -3 -70 -42 c-38 -24 -66 -43 -62 -43 4 0 57 20 118 45 94 39 119 46 167
43 l57 -3 -70 -42 c-38 -24 -66 -43 -62 -43 4 0 58 20 118 46 78 32 122 44
147 42 34 -3 13 -17 -305 -205 l-341 -203 -538 0 c-295 0 -534 3 -530 8 4 4
159 96 344 204 205 119 348 197 365 197 15 1 27 -1 27 -4z m1585 -40 c59 -25
110 -44 112 -41 2 2 -27 21 -64 42 l-68 39 76 3 c70 3 82 0 183 -43 59 -26
110 -44 112 -42 3 3 -26 22 -63 43 l-68 39 70 3 c65 2 79 -1 189 -48 65 -28
121 -49 122 -47 2 2 -31 23 -74 48 l-77 44 70 3 c65 3 80 -1 193 -48 67 -27
126 -50 130 -50 4 0 -29 22 -73 48 l-80 47 72 3 c67 3 81 -1 194 -48 67 -27
124 -49 125 -47 2 2 -31 23 -74 48 l-77 44 69 3 c63 3 78 -1 188 -48 67 -28
123 -49 125 -46 2 2 -25 20 -61 40 -36 20 -68 41 -71 46 -4 6 19 10 58 10 54
0 83 -8 185 -50 66 -27 124 -50 129 -50 4 0 -28 22 -72 48 l-80 47 69 3 c63 3
78 -1 188 -48 67 -28 123 -49 125 -46 2 2 -25 20 -61 40 -36 20 -68 41 -71 46
-4 6 19 10 60 10 56 0 83 -7 185 -50 66 -27 123 -50 127 -50 5 0 -28 22 -72
48 l-80 47 70 3 c66 3 78 -1 199 -52 71 -31 131 -54 133 -52 2 2 -34 25 -79
52 l-83 49 67 3 c61 3 76 -1 198 -53 73 -30 134 -54 136 -52 2 2 -30 22 -71
46 -41 23 -77 46 -80 52 -4 5 10 9 31 9 30 0 101 -37 383 -202 l345 -203
-1324 -3 -1323 -2 -326 191 c-179 106 -333 198 -341 205 -12 12 -7 14 36 14
38 0 79 -12 159 -45z m10 -195 c182 -106 337 -199 345 -207 12 -11 2 -13 -63
-13 l-77 0 2 -217 3 -218 149 -3 c104 -2 153 1 163 9 9 8 13 27 11 58 l-3 46
-92 3 c-91 3 -93 3 -93 27 0 23 4 24 68 27 l67 3 0 50 0 50 -67 3 c-64 3 -68
4 -68 27 0 24 2 24 93 27 l92 3 3 33 c3 29 6 32 37 32 l35 0 2 -197 3 -198
155 0 155 0 3 57 3 57 -93 3 c-87 3 -93 4 -96 25 -3 21 1 22 65 25 l68 3 3 52
3 52 -68 3 c-60 3 -68 5 -68 23 0 18 8 20 93 23 l92 3 0 34 c0 33 2 35 35 35
l35 0 0 -195 0 -195 23 -5 c13 -4 43 -5 68 -3 l44 3 5 78 c3 42 8 77 13 77 4
0 25 0 47 0 l39 0 3 -77 3 -78 44 -3 c91 -7 91 -6 91 117 0 94 -3 112 -21 135
-11 14 -27 26 -36 26 -16 0 -16 2 15 77 l17 43 503 0 502 0 0 -505 0 -505
-1365 0 -1365 0 0 746 0 746 23 -14 c12 -8 171 -101 352 -208z m-465 -535 l0
-725 -570 0 -570 0 0 500 0 500 63 0 62 -1 -37 -20 c-34 -17 -38 -24 -38 -59
0 -21 4 -41 9 -45 5 -3 66 22 135 54 69 33 136 63 148 66 13 4 66 28 118 55
52 26 210 100 350 165 140 65 261 122 268 127 6 6 12 28 12 49 0 35 16 58 43
59 4 0 7 -326 7 -725z m1664 253 c-12 -41 -44 -98 -54 -98 -6 0 -10 27 -10 60
l0 60 36 0 c32 0 35 -2 28 -22z m1566 8 c0 -24 -59 -185 -110 -298 -47 -106
-181 -341 -200 -353 -7 -4 -10 107 -10 329 l0 336 160 0 c132 0 160 -3 160
-14z m-4570 -63 c-1 -39 -10 -33 -24 15 -6 16 -3 22 8 22 12 0 16 -10 16 -37z
m2105 -1159 c52 -20 175 -44 229 -44 23 0 85 -11 139 -25 171 -45 461 -79 857
-103 l125 -7 -125 -62 c-211 -104 -439 -177 -680 -219 -146 -25 -532 -31 -685
-10 -283 39 -506 106 -750 225 -222 109 -220 106 -99 115 220 16 435 68 516
124 l39 27 197 -3 c150 -2 207 -6 237 -18z"/>
<path d="M3495 4329 c6 -48 -8 -85 -24 -61 -4 8 -12 13 -17 13 -5 0 -15 14
-21 32 l-13 32 6 -32 c7 -38 -11 -45 -26 -10 -7 16 -9 4 -5 -43 9 -94 15 -119
28 -115 20 8 34 -8 45 -50 9 -38 10 -38 12 -10 1 26 3 27 10 10 6 -14 9 1 10
50 l2 70 12 -50 c8 -35 14 -46 20 -36 14 21 7 130 -10 183 -21 64 -37 73 -29
17z"/>
<path d="M3755 4326 c-4 -25 -12 -52 -19 -61 -18 -25 -43 -8 -51 33 -7 34 -8
35 -14 12 -7 -24 -7 -24 -16 -5 -7 17 -10 12 -16 -25 -13 -76 -11 -127 6 -134
10 -4 15 -21 16 -58 1 -33 4 -42 6 -23 7 45 23 55 24 15 0 -27 4 -21 14 29 16
71 25 88 25 46 0 -22 3 -25 14 -16 14 12 36 125 36 185 0 52 -18 53 -25 2z"/>
<path d="M3575 4290 c-3 -5 -1 -18 4 -27 9 -16 10 -14 11 10 0 28 -5 34 -15
17z"/>
<path d="M4050 4235 c-59 -75 -90 -88 -65 -29 19 46 19 54 -1 26 -20 -28 -39
-29 -24 -1 25 45 1 25 -54 -46 -38 -50 -52 -75 -42 -75 22 0 20 -26 -6 -69
l-21 -36 31 29 c35 32 42 25 15 -14 -31 -46 112 94 158 155 44 59 74 113 66
122 -3 2 -28 -26 -57 -62z"/>
<path d="M3815 4269 c-4 -6 -5 -13 -2 -16 7 -7 27 6 27 18 0 12 -17 12 -25 -2z"/>
<path d="M3210 4191 c0 -6 5 -13 10 -16 6 -3 10 -12 10 -19 0 -21 -33 -15 -64
13 -26 23 -27 24 -17 4 17 -33 13 -38 -10 -17 l-22 19 16 -30 c32 -60 97 -150
97 -133 0 24 35 11 65 -24 28 -33 33 -30 9 7 -20 31 -8 32 23 3 l23 -21 0 28
c0 31 -46 112 -94 163 -30 32 -46 40 -46 23z"/>
<path d="M4090 4170 c0 -5 4 -10 9 -10 6 0 13 5 16 10 3 6 -1 10 -9 10 -9 0
-16 -4 -16 -10z"/>
<path d="M3320 4156 c0 -15 18 -31 26 -23 7 7 -7 37 -17 37 -5 0 -9 -6 -9 -14z"/>
<path d="M3574 4157 c-11 -18 13 -137 27 -137 7 0 1 79 -10 125 -6 26 -8 28
-17 12z"/>
<path d="M3782 4148 c-7 -7 -12 -39 -12 -77 1 -81 17 -63 26 28 7 64 6 69 -14
49z"/>
<path d="M4003 4093 c-14 -5 -77 -112 -71 -118 5 -6 98 104 98 116 0 10 -8 10
-27 2z"/>
<path d="M3380 4040 c0 -23 68 -116 77 -106 6 6 -46 103 -64 117 -10 9 -13 7
-13 -11z"/>
<path d="M4278 4024 c-27 -13 -48 -22 -48 -19 0 3 -14 -2 -31 -10 -39 -21 -49
-12 -18 16 13 11 -18 -1 -69 -28 -51 -26 -86 -49 -77 -51 23 -5 18 -20 -17
-53 l-33 -30 28 10 c40 15 43 14 21 -11 -16 -18 -17 -21 -2 -15 9 3 18 1 20
-5 2 -6 35 5 77 27 55 27 70 39 60 46 -8 5 -23 9 -34 9 -11 0 12 18 55 40 68
36 149 101 125 100 -6 -1 -31 -12 -57 -26z"/>
<path d="M3110 3992 c0 -11 22 -32 32 -32 5 0 4 9 -2 20 -11 20 -30 28 -30 12z"/>
<path d="M4285 3940 c-3 -5 1 -10 10 -10 9 0 13 5 10 10 -3 6 -8 10 -10 10 -2
0 -7 -4 -10 -10z"/>
<path d="M4430 3180 c0 -11 4 -20 9 -20 11 0 22 26 14 34 -12 12 -23 5 -23
-14z"/>
<path d="M4480 3171 c0 -12 5 -21 10 -21 6 0 10 6 10 14 0 8 -4 18 -10 21 -5
3 -10 -3 -10 -14z"/>
<path d="M4527 3156 c-6 -15 1 -26 15 -26 4 0 8 9 8 20 0 23 -15 27 -23 6z"/>
<path d="M4573 3145 c-3 -9 -3 -18 0 -21 9 -9 27 6 27 22 0 19 -19 18 -27 -1z"/>
<path d="M4450 2996 c-31 -12 -35 -17 -32 -45 1 -17 -2 -31 -7 -31 -5 0 -16
-3 -25 -6 -10 -4 -16 -1 -16 7 -1 36 -16 41 -68 23 -46 -17 -49 -20 -41 -41 7
-20 5 -25 -17 -35 -20 -10 -24 -16 -19 -39 5 -22 2 -29 -15 -34 -23 -7 -24
-28 -1 -87 9 -25 13 -27 36 -18 22 9 27 7 35 -15 8 -21 14 -24 35 -19 20 5 26
1 35 -20 8 -22 13 -25 35 -16 22 8 26 6 31 -16 6 -21 10 -24 34 -19 23 5 30 2
35 -14 6 -21 21 -26 49 -15 11 4 13 14 10 34 -5 23 -2 29 16 35 17 5 20 12 15
35 -5 24 -2 28 19 34 22 5 24 9 16 31 -8 22 -6 27 15 35 21 8 24 14 19 38 -5
24 -2 30 15 35 25 6 26 22 5 72 -13 32 -18 36 -40 31 -19 -5 -26 -2 -33 18 -8
18 -15 22 -34 19 -18 -4 -28 1 -36 16 -13 24 -22 25 -71 7z m-76 -142 c11 -28
6 -42 -14 -47 -17 -4 -19 -11 -14 -31 5 -21 2 -26 -20 -32 -31 -7 -31 -7 -41
24 -5 19 -2 25 15 29 17 4 21 11 17 30 -7 36 44 60 57 27z"/>
<path d="M2398 1945 c-48 -27 -58 -61 -58 -202 0 -138 7 -163 52 -196 23 -17
47 -21 157 -25 96 -3 135 -1 146 8 11 10 15 35 15 109 0 53 -4 102 -9 109 -5
9 -26 12 -67 10 l-59 -3 -5 -55 -5 -55 -37 -3 c-46 -4 -50 9 -46 118 l3 75 80
3 c43 2 85 8 93 14 8 7 12 28 10 57 l-3 46 -120 2 c-91 2 -127 -1 -147 -12z"/>
<path d="M3205 1435 c-76 -27 -90 -70 -83 -252 2 -71 9 -116 18 -131 24 -36
77 -55 160 -56 99 -1 142 9 174 41 26 26 26 27 26 185 0 154 -1 160 -24 183
-13 13 -41 28 -62 34 -54 15 -161 13 -209 -4z m155 -124 c5 -11 10 -53 10 -95
0 -82 -13 -106 -55 -106 -42 0 -55 24 -55 106 0 94 10 114 55 114 24 0 38 -6
45 -19z"/>
<path d="M2388 1425 c-40 -22 -48 -45 -48 -127 1 -100 21 -122 123 -134 62 -7
83 -17 73 -33 -5 -7 -43 -11 -102 -11 l-95 0 3 -57 3 -58 120 -3 c177 -4 215
21 215 141 0 88 -23 121 -95 132 -95 15 -105 18 -105 31 0 11 18 14 78 14 42
0 83 4 90 9 9 5 12 25 10 57 l-3 49 -120 2 c-91 2 -127 -1 -147 -12z"/>
<path d="M2714 1426 c-3 -7 -4 -33 -2 -57 l3 -44 52 -3 52 -3 3 -157 3 -157
70 0 70 0 3 157 3 157 52 3 52 3 0 55 0 55 -178 3 c-145 2 -178 0 -183 -12z"/>
<path d="M3582 1223 l3 -218 65 0 65 0 3 68 3 67 49 0 50 0 0 -57 c0 -79 5
-85 76 -81 l59 3 3 85 c4 105 -2 128 -33 142 -16 7 -22 15 -16 22 17 21 22 75
11 115 -16 62 -42 71 -205 71 l-135 0 2 -217z m206 79 c5 -30 -14 -52 -44 -52
-21 0 -24 5 -24 41 0 39 1 40 33 37 25 -2 33 -8 35 -26z"/>
<path d="M4032 1223 l3 -218 160 0 160 0 0 55 0 55 -92 3 c-91 3 -93 3 -93 27
0 23 4 24 68 27 l67 3 0 50 0 50 -67 3 c-60 3 -68 5 -68 22 0 18 7 20 84 20
97 0 109 8 104 72 l-3 43 -163 3 -162 2 2 -217z"/>
<path d="M1810 2088 c-118 -56 -343 -161 -500 -233 l-285 -133 -3 -46 c-2 -25
1 -46 6 -46 13 0 1003 459 1020 472 6 6 12 28 12 49 0 31 -4 39 -17 38 -10 -1
-115 -46 -233 -101z"/>
<path d="M1840 1939 c-107 -50 -332 -154 -500 -232 -168 -77 -308 -146 -312
-151 -11 -16 -10 -86 2 -86 12 0 977 446 1008 466 17 11 22 24 22 54 0 25 -5
40 -12 40 -7 0 -101 -41 -208 -91z"/>
<path d="M1980 1844 c-30 -14 -255 -118 -500 -231 -245 -114 -448 -211 -452
-217 -11 -16 -10 -86 2 -86 12 0 977 446 1008 466 17 11 22 24 22 54 0 48 -6
49 -80 14z"/>
<path d="M1885 1642 c-77 -36 -302 -141 -500 -233 l-360 -167 -3 -46 c-2 -26
1 -46 7 -46 13 0 1002 458 1018 472 7 6 13 28 13 49 0 31 -4 39 -17 38 -10 0
-81 -30 -158 -67z"/>
<path d="M1541 1319 c-272 -126 -501 -234 -508 -240 -16 -14 -18 -89 -1 -89
18 0 1012 462 1020 474 13 19 9 86 -4 86 -7 -1 -235 -104 -507 -231z"/>
<path d="M1600 1187 l-435 -202 100 -3 101 -3 339 157 c187 87 343 162 347
168 13 19 9 86 -4 85 -7 0 -209 -91 -448 -202z"/>
<path d="M1783 1112 c-138 -64 -255 -120 -259 -125 -4 -4 37 -7 92 -7 l99 0
170 79 170 79 3 46 c2 33 -1 46 -10 45 -7 0 -126 -53 -265 -117z"/>
<path d="M1955 1025 l-90 -44 95 2 95 2 3 34 c2 18 0 37 -5 41 -4 5 -48 -11
-98 -35z"/>
<path d="M2529 606 c-132 -21 -160 -43 -91 -74 52 -23 411 -25 457 -2 45 23
44 47 -2 67 -50 22 -248 26 -364 9z"/>
</g>
</svg>
